<svg width="148" height="40" viewBox="0 0 148 40" fill="none" xmlns="http://www.w3.org/2000/svg">
<rect opacity="0.2" x="0.540649" y="7.88965" width="42" height="32" rx="8.448" transform="rotate(-10 0.540649 7.88965)" fill="#14B45C"/>
<path fill-rule="evenodd" clip-rule="evenodd" d="M3.87193 9.36808C2.99998 11.0794 2.99998 13.3196 2.99998 17.8V22.2C2.99998 26.6804 2.99998 28.9206 3.87193 30.6319C4.63892 32.1372 5.86276 33.3611 7.36806 34.1281C9.07935 35 11.3196 35 15.8 35H30.2C34.6804 35 36.9206 35 38.6319 34.1281C40.1372 33.3611 41.361 32.1372 42.128 30.6319C43 28.9206 43 26.6804 43 22.2V17.8C43 13.3196 43 11.0794 42.128 9.36808C41.361 7.86278 40.1372 6.63893 38.6319 5.87195C36.9206 5 34.6804 5 30.2 5H15.8C11.3196 5 9.07935 5 7.36806 5.87195C5.86276 6.63893 4.63892 7.86278 3.87193 9.36808ZM27.6 19C27.2582 19 26.9541 19.2172 26.8432 19.5405L25.2 24.3333L21.1567 12.5405C20.9096 11.8198 19.8903 11.8198 19.6432 12.5405L17.4286 19H14.8C14.3582 19 14 19.3582 14 19.8C14 20.2418 14.3582 20.6 14.8 20.6H18C18.3418 20.6 18.6459 20.3828 18.7567 20.0595L20.4 15.2667L24.4432 27.0595C24.6903 27.7802 25.7096 27.7802 25.9567 27.0595L28.1714 20.6H30.8C31.2418 20.6 31.6 20.2418 31.6 19.8C31.6 19.3582 31.2418 19 30.8 19H27.6Z" fill="#14B45C"/>
<path fill-rule="evenodd" clip-rule="evenodd" d="M59.05 28.302C56.938 28.302 55.574 27.158 54.694 25.882V28.06H53V12H54.694V18.974C55.618 17.61 56.96 16.444 59.05 16.444C61.778 16.444 64.484 18.6 64.484 22.34V22.384C64.484 26.102 61.8 28.302 59.05 28.302ZM58.742 26.7839C60.942 26.7839 62.746 25.1559 62.746 22.4059V22.3619C62.746 19.6779 60.898 17.9619 58.742 17.9619C56.63 17.9619 54.628 19.7439 54.628 22.3399V22.3839C54.628 25.0239 56.63 26.7839 58.742 26.7839ZM68.62 23.0663C68.862 25.4643 70.622 26.8503 72.624 26.8503C74.186 26.8503 75.286 26.2123 76.21 25.2443L77.266 26.1903C76.122 27.4663 74.736 28.3243 72.58 28.3243C69.456 28.3243 66.904 25.9263 66.904 22.3843C66.904 19.0843 69.214 16.4443 72.36 16.4443C75.726 16.4443 77.662 19.1283 77.662 22.4723C77.662 22.6263 77.662 22.8023 77.64 23.0663H68.62ZM68.62 21.702H75.946C75.748 19.634 74.56 17.874 72.316 17.874C70.358 17.874 68.862 19.502 68.62 21.702ZM81.644 23.0663C81.886 25.4643 83.646 26.8503 85.648 26.8503C87.21 26.8503 88.31 26.2123 89.234 25.2443L90.29 26.1903C89.146 27.4663 87.76 28.3243 85.604 28.3243C82.48 28.3243 79.928 25.9263 79.928 22.3843C79.928 19.0843 82.238 16.4443 85.384 16.4443C88.75 16.4443 90.686 19.1283 90.686 22.4723C90.686 22.6263 90.686 22.8023 90.664 23.0663H81.644ZM81.644 21.702H88.97C88.772 19.634 87.584 17.874 85.34 17.874C83.382 17.874 81.886 19.502 81.644 21.702ZM93.656 31.5803V16.6863H95.35V18.9743C96.274 17.6103 97.616 16.4443 99.706 16.4443C102.434 16.4443 105.14 18.6003 105.14 22.3403V22.3843C105.14 26.1023 102.456 28.3023 99.706 28.3023C97.594 28.3023 96.23 27.1583 95.35 25.8823V31.5803H93.656ZM99.398 26.7839C101.598 26.7839 103.402 25.1559 103.402 22.4059V22.3619C103.402 19.6779 101.554 17.9619 99.398 17.9619C97.286 17.9619 95.284 19.7439 95.284 22.3399V22.3839C95.284 25.0239 97.286 26.7839 99.398 26.7839ZM114.886 28.28C113.104 28.28 112.004 27.466 111.212 26.52V28.06H107.868V12H111.212V17.962C112.026 16.862 113.148 16.048 114.886 16.048C117.636 16.048 120.254 18.204 120.254 22.142V22.186C120.254 26.124 117.68 28.28 114.886 28.28ZM114.028 25.4421C115.59 25.4421 116.91 24.1661 116.91 22.1861V22.1421C116.91 20.1841 115.59 18.8861 114.028 18.8861C112.466 18.8861 111.168 20.1841 111.168 22.1421V22.1861C111.168 24.1441 112.466 25.4421 114.028 25.4421ZM122.324 28.0601V24.5401H125.888V28.0601H122.324ZM128.814 14.97V12H132.334V14.97H128.814ZM128.902 28.0601V16.2681H132.246V28.0601H128.902ZM141.178 28.3243C137.526 28.3243 134.82 25.6183 134.82 22.2303V22.1863C134.82 18.7983 137.548 16.0483 141.222 16.0483C144.874 16.0483 147.58 18.7543 147.58 22.1423V22.1863C147.58 25.5743 144.852 28.3243 141.178 28.3243ZM141.222 25.4421C143.136 25.4421 144.28 23.9681 144.28 22.2301V22.1861C144.28 20.4481 143.026 18.9301 141.178 18.9301C139.264 18.9301 138.12 20.4041 138.12 22.1421V22.1861C138.12 23.9241 139.374 25.4421 141.222 25.4421Z" fill="white"/>
</svg>
